<svg id="eqk7cveudc3g1" xmlns="http://www.w3.org/2000/svg" xmlns:xlink="http://www.w3.org/1999/xlink" viewBox="0 0 600 745.850000" shape-rendering="geometricPrecision" text-rendering="geometricPrecision"><g id="eqk7cveudc3g2" transform="matrix(0.99619469809175 0.08715574274766 -0.08715574274766 0.99619469809175 122.52114139076161 107.79996180184258)"><path id="eqk7cveudc3g3" d="M48.200000,30.952000C25.909000,38.245000,22.143000,59.765000,38.286000,87.600000C53.045000,113.046000,94.915000,160.820000,129.993000,192.236000C131.198000,193.316000,136.110000,197.890000,140.907000,202.400000C152.829000,213.608000,151.849000,212.970000,157.401000,213.134000C175.823000,213.676000,190,201.521000,190,185.182000C190,180.532000,189.087000,179.122000,182.200000,173.140000C179.120000,170.464000,174.103000,166.008000,171.052000,163.238000C168,160.467000,164.490000,157.323000,163.252000,156.251000C160.845000,154.167000,153.056000,146.889000,141.400000,135.832000C129.523000,124.565000,118.780000,113.648000,103.970000,97.792000C85.144000,77.638000,67.288000,54.264000,57.577000,37.065000C53.299000,29.489000,53.089000,29.352000,48.200000,30.952000M252.400000,229.837000C249.650000,230.354000,243.620000,231.401000,239,232.163000C234.380000,232.925000,228.080000,234.001000,225,234.554000C221.920000,235.106000,216.700000,236.025000,213.400000,236.596000C206.743000,237.746000,199.532000,239.020000,189.600000,240.800000C185.970000,241.450000,180.390000,242.442000,177.200000,243.004000C158.701000,246.264000,148.420000,248.299000,145.681000,249.241000C144.426000,249.673000,140.250000,250.847000,136.400000,251.851000C129.850000,253.557000,127.668000,254.172000,117.400000,257.201000C109.501000,259.531000,103.126000,262.160000,101.730000,263.663000C99.931000,265.602000,97.349000,280.451000,95.795000,297.800000C95.460000,301.540000,94.784000,307.660000,94.293000,311.400000C92.949000,321.633000,93.328000,361.981000,94.828000,368.400000C95.453000,371.072000,96.401000,371.832000,103.200000,375.101000C118.378000,382.399000,119.743000,382.501000,116.627000,376.098000C111.075000,364.692000,114.398000,347.239000,126.888000,322.200000C133.987000,307.971000,137.433000,305.444000,137.373000,314.515000C137.342000,319.141000,136.480000,322.266000,132.604000,331.800000C126.826000,346.011000,125.525000,354.385000,127.972000,361.600000C132.586000,375.201000,149.292000,386.213000,156.050000,380.107000C159.527000,376.966000,159.776000,374.246000,157.450000,364.854000C154.582000,353.272000,155.332000,352.278000,176.962000,339C181.979000,335.920000,188.211000,332.008000,190.810000,330.307000C205.117000,320.942000,208.419000,323.957000,225.024000,361.539000C241.892000,399.718000,273.479000,416.861000,304.723000,404.796000C327.279000,396.085000,336.602000,369.234000,329.997000,332C327.752000,319.347000,327.290000,318.436000,304.332000,281.400000C271.432000,228.326000,269.679000,226.584000,252.400000,229.837000M238.703000,258.414000C243.166000,260.973000,255.599000,279.432000,255.600000,283.500000C255.601000,287.834000,251.658000,287.400000,243.800000,282.202000C231.402000,274.001000,221.672000,273.189000,196.400000,278.246000C185.725000,280.382000,176.653000,284.071000,168.280000,289.680000C162.718000,293.406000,159.139000,295.199000,157.262000,295.200000C152.219000,295.201000,150.654000,288.284000,154.956000,285.008000C157.365000,283.173000,195.716000,270.213000,211.200000,266.001000C218.508000,264.013000,222.383000,262.585000,228.029000,259.801000C234.257000,256.729000,235.487000,256.569000,238.703000,258.414000M43.160000,298.002000C37.983000,303.178000,38.448000,305.727000,48.003000,324.600000C54.208000,336.857000,56.646000,342.391000,60.008000,351.858000C61.970000,357.382000,62.863000,358.895000,63.678000,358.075000C64.644000,357.103000,64,336.139000,62.608000,323.200000C62.288000,320.230000,61.834000,316.006000,61.599000,313.814000C60.775000,306.119000,59.597000,303.883000,54.292000,299.935000C48.039000,295.282000,46.199000,294.962000,43.160000,298.002000M155.600000,434.874000C139.295000,436.573000,136.989000,437.578000,140.100000,441.632000C142.693000,445.011000,142.512000,444.959000,152.926000,445.279000C175.465000,445.971000,199.669000,449.197000,221.477000,454.416000C232.477000,457.049000,234.484000,456.940000,231.160000,453.889000C223.013000,446.412000,198.301000,437.218000,182,435.601000C179.690000,435.371000,176.146000,435.007000,174.123000,434.792000C169.795000,434.331000,160.416000,434.372000,155.600000,434.874000" fill="rgb(253,231,76)" stroke="none" stroke-width="1"/><path id="eqk7cveudc3g4" d="M53,0.253000C52.560000,0.359000,51.390000,0.714000,50.400000,1.041000C49.410000,1.367000,47.208000,1.812000,45.506000,2.029000C43.804000,2.246000,41.571000,2.784000,40.545000,3.224000C39.518000,3.664000,37.879000,4.203000,36.904000,4.422000C25.023000,7.084000,8.118000,22.362000,4.398000,33.800000C4.111000,34.680000,3.528000,36.072000,3.101000,36.894000C2.674000,37.716000,2.223000,39.516000,2.098000,40.894000C1.973000,42.272000,1.452000,44.300000,0.939000,45.400000C-0.542000,48.581000,-0.498000,67.370000,1,71.525000C1.550000,73.049000,2.002000,74.725000,2.005000,75.248000C2.036000,81.516000,12.478000,102.602000,22.097000,115.822000C23.141000,117.256000,24.287000,119.008000,24.645000,119.715000C25.003000,120.422000,26.316000,122.260000,27.562000,123.800000C28.809000,125.340000,30.168000,127.140000,30.583000,127.800000C31.476000,129.221000,32.933000,131.071000,36.213000,134.948000C37.541000,136.516000,39.059000,138.430000,39.588000,139.200000C40.716000,140.843000,41.945000,142.314000,45.609000,146.400000C47.088000,148.050000,48.813000,150.030000,49.442000,150.800000C54.078000,156.476000,60.800000,163.825000,71.982000,175.447000C87.348000,191.419000,92.512000,196.667000,93.619000,197.441000C94.282000,197.904000,98.013000,201.417000,101.912000,205.248000C105.810000,209.080000,112.060000,215.088000,115.800000,218.600000C119.540000,222.112000,122.595000,225.079000,122.589000,225.193000C122.562000,225.675000,118.843000,227.148000,117,227.408000C115.900000,227.563000,113.970000,228.119000,112.712000,228.645000C111.454000,229.170000,110.104000,229.605000,109.712000,229.610000C109.320000,229.616000,106.660000,230.439000,103.800000,231.439000C100.940000,232.440000,97.366000,233.689000,95.859000,234.215000C94.351000,234.740000,92.911000,235.334000,92.659000,235.533000C92.406000,235.733000,91.480000,236.123000,90.600000,236.401000C86.283000,237.765000,79.882000,242.697000,77.103000,246.800000C75.472000,249.208000,73.175000,255.663000,72.477000,259.800000C72.255000,261.120000,71.696000,263.456000,71.236000,264.991000C70.714000,266.735000,70.398000,268.912000,70.394000,270.791000C70.387000,274.315000,70.006000,275.237000,68.854000,274.522000C59.847000,268.942000,54.128000,267.099000,45.800000,267.093000C40.976000,267.089000,39.006000,267.240000,37.800000,267.705000C28.832000,271.168000,24.560000,274.325000,19.101000,281.520000C16.605000,284.808000,13.200000,290.835000,13.200000,291.962000C13.200000,292.145000,12.660000,293.933000,12,295.935000C10.272000,301.179000,10.344000,309.257000,12.156000,313.330000C12.466000,314.028000,12.931000,315.741000,13.188000,317.136000C13.444000,318.531000,13.967000,320.241000,14.348000,320.936000C14.729000,321.631000,15.252000,322.920000,15.510000,323.800000C15.942000,325.273000,17.704000,328.815000,23.865000,340.600000C25.130000,343.020000,26.848000,346.530000,27.683000,348.400000C28.518000,350.270000,29.491000,352.340000,29.845000,353C30.198000,353.660000,30.737000,355.150000,31.042000,356.310000C31.346000,357.471000,31.850000,358.821000,32.161000,359.310000C32.473000,359.800000,33.018000,361.357000,33.374000,362.771000C33.729000,364.185000,34.185000,365.541000,34.387000,365.785000C34.589000,366.028000,34.938000,367.365000,35.162000,368.755000C35.386000,370.146000,35.921000,372.030000,36.351000,372.942000C36.781000,373.854000,37.340000,376.219000,37.594000,378.199000C37.848000,380.178000,38.309000,382.338000,38.618000,382.999000C38.926000,383.659000,39.359000,386.136000,39.580000,388.503000C39.810000,390.980000,40.311000,393.611000,40.761000,394.703000C41.190000,395.746000,41.661000,397.494000,41.808000,398.588000C42.430000,403.211000,45.290000,406.417000,53.200000,411.354000C59.917000,415.548000,64.468000,418.545000,74,425.053000C97.826000,441.320000,114.248000,454.874000,120.002000,463.019000C127.084000,473.046000,128.497000,473.568000,148.636000,473.588000C158.667000,473.598000,161.453000,473.719000,163.036000,474.214000C164.202000,474.578000,168.496000,475.045000,173.600000,475.364000C179.464000,475.730000,182.769000,476.112000,183.989000,476.564000C184.972000,476.929000,188.122000,477.410000,190.989000,477.634000C194.138000,477.880000,197.004000,478.338000,198.232000,478.790000C199.350000,479.201000,201.600000,479.656000,203.232000,479.800000C204.865000,479.944000,207.507000,480.498000,209.104000,481.031000C210.700000,481.564000,212.650000,482,213.436000,482C214.222000,482,216.156000,482.439000,217.733000,482.976000C219.310000,483.513000,221.320000,484.068000,222.200000,484.210000C223.755000,484.461000,228.347000,485.791000,232,487.050000C232.990000,487.391000,234.880000,488.002000,236.200000,488.407000C238.822000,489.213000,243.216000,490.824000,248.200000,492.806000C249.960000,493.506000,252.088000,494.335000,252.929000,494.648000C253.771000,494.960000,255.340000,495.663000,256.416000,496.208000C259.419000,497.730000,278.314000,497.745000,282.390000,496.229000C285.465000,495.086000,288.085000,494.212000,291.437000,493.212000C292.778000,492.813000,294.432000,492.197000,295.113000,491.845000C296.260000,491.252000,299.535000,489.951000,303.400000,488.553000C307.582000,487.040000,321.879000,479.645000,330.200000,474.690000C349.518000,463.186000,367.993000,446.942000,380.763000,430.231000C381.953000,428.674000,383.410000,426.840000,384.002000,426.156000C384.593000,425.472000,385.656000,423.942000,386.362000,422.756000C387.069000,421.570000,388.181000,419.880000,388.832000,419C389.484000,418.120000,390.465000,416.590000,391.012000,415.600000C391.559000,414.610000,392.748000,412.630000,393.654000,411.200000C394.560000,409.770000,395.554000,408.060000,395.864000,407.400000C396.174000,406.740000,396.969000,405.300000,397.632000,404.200000C400.048000,400.188000,400.058000,400.137000,399.924000,392.056000L399.800000,384.600000L397.261000,380.200000C395.864000,377.780000,394.334000,375.230000,393.861000,374.533000C393.387000,373.836000,391.865000,371.316000,390.477000,368.933000C389.090000,366.550000,387.795000,364.330000,387.601000,364C387.407000,363.670000,385.937000,361.150000,384.335000,358.400000C382.733000,355.650000,381.057000,352.830000,380.611000,352.132000C380.165000,351.435000,379.260000,349.936000,378.600000,348.800000C377.940000,347.665000,376.436000,345.175000,375.258000,343.268000C374.079000,341.360000,372.948000,339.440000,372.743000,339C372.539000,338.560000,371.751000,337.210000,370.993000,336C370.235000,334.790000,369.343000,333.260000,369.010000,332.600000C368.677000,331.940000,367.784000,330.410000,367.025000,329.200000C366.266000,327.990000,364.435000,324.930000,362.956000,322.400000C361.477000,319.870000,359.873000,317.260000,359.391000,316.600000C358.910000,315.940000,358.126000,314.680000,357.650000,313.800000C355.737000,310.265000,354.248000,307.724000,352.625000,305.225000C351.687000,303.781000,350.325000,301.520000,349.599000,300.200000C348.873000,298.880000,347.586000,296.752000,346.739000,295.472000C345.893000,294.191000,345.200000,293.052000,345.200000,292.940000C345.200000,292.743000,343.032000,289.280000,341.599000,287.188000C341.218000,286.631000,340.477000,285.394000,339.953000,284.440000C339.429000,283.485000,338.640000,282.049000,338.200000,281.248000C337.760000,280.447000,336.545000,278.509000,335.500000,276.942000C334.455000,275.375000,333.600000,273.979000,333.600000,273.841000C333.600000,273.703000,332.816000,272.378000,331.857000,270.895000C330.899000,269.413000,328.982000,266.400000,327.598000,264.200000C326.213000,262,324.387000,259.144000,323.540000,257.854000C322.693000,256.564000,322,255.316000,322,255.080000C322,254.844000,321.662000,254.280000,321.249000,253.826000C320.835000,253.372000,318.952000,250.480000,317.064000,247.400000C315.176000,244.320000,313.175000,241.170000,312.617000,240.400000C312.059000,239.630000,311.287000,238.418000,310.901000,237.706000C310.516000,236.994000,309.521000,235.464000,308.691000,234.306000C307.861000,233.148000,306.511000,231.192000,305.691000,229.959000C300.376000,221.973000,298.831000,220.018000,293.331000,214.315000C287.079000,207.831000,281.816000,204.258000,276.970000,203.208000C275.887000,202.973000,274.183000,202.436000,273.184000,202.015000C272.185000,201.594000,270.385000,201.119000,269.184000,200.960000C263.934000,200.264000,255.267000,196.217000,249.342000,191.694000C243.985000,187.606000,235.735000,180.913000,232,177.628000C230.350000,176.176000,227.650000,173.912000,226,172.597000C224.350000,171.282000,221.459000,168.854000,219.576000,167.203000C214.063000,162.368000,211.499000,160.180000,209.385000,158.505000C207.513000,157.023000,203.598000,153.545000,199.637000,149.846000C198.667000,148.941000,197.345000,147.808000,196.699000,147.329000C194.610000,145.781000,189.785000,141.475000,181.992000,134.206000C180.338000,132.663000,177.619000,130.140000,175.950000,128.600000C162.502000,116.193000,156.765000,110.704000,146.629000,100.547000C140.233000,94.137000,132.900000,86.577000,130.333000,83.747000C127.766000,80.916000,123.379000,76.080000,120.583000,73C117.788000,69.920000,113.948000,65.520000,112.050000,63.222000C110.153000,60.924000,107.520000,57.774000,106.200000,56.222000C104.880000,54.670000,102.990000,52.320000,102.001000,51C101.012000,49.680000,100.109000,48.510000,99.995000,48.400000C99.783000,48.195000,97.027000,44.492000,93.146000,39.200000C88.985000,33.526000,83.147000,24.341000,81.787000,21.327000C81.471000,20.627000,81.055000,19.957000,80.862000,19.839000C80.457000,19.588000,77.840000,14.276000,77.395000,12.800000C76.047000,8.328000,72.291000,3.783000,67.974000,1.400000C65.844000,0.224000,56.168000,-0.517000,53,0.253000M53.133000,30.565000C53.896000,30.960000,55.238000,32.923000,57.577000,37.065000C67.288000,54.264000,85.144000,77.638000,103.970000,97.792000C118.780000,113.648000,129.523000,124.565000,141.400000,135.832000C153.056000,146.889000,160.845000,154.167000,163.252000,156.251000C164.490000,157.323000,168,160.467000,171.052000,163.238000C174.103000,166.008000,179.120000,170.464000,182.200000,173.140000C189.087000,179.122000,190,180.532000,190,185.182000C190,201.521000,175.823000,213.676000,157.401000,213.134000C151.849000,212.970000,152.829000,213.608000,140.907000,202.400000C136.110000,197.890000,131.198000,193.316000,129.993000,192.236000C94.915000,160.820000,53.045000,113.046000,38.286000,87.600000C26.716000,67.651000,25.226000,51.148000,33.992000,40.058000C38.355000,34.539000,49.820000,28.852000,53.133000,30.565000M263.680000,229.243000C272.087000,231,276.989000,237.290000,304.332000,281.400000C327.290000,318.436000,327.752000,319.347000,329.997000,332C336.602000,369.234000,327.279000,396.085000,304.723000,404.796000C273.479000,416.861000,241.892000,399.718000,225.024000,361.539000C208.419000,323.957000,205.117000,320.942000,190.810000,330.307000C188.211000,332.008000,181.979000,335.920000,176.962000,339C155.332000,352.278000,154.582000,353.272000,157.450000,364.854000C159.776000,374.246000,159.527000,376.966000,156.050000,380.107000C149.292000,386.213000,132.586000,375.201000,127.972000,361.600000C125.525000,354.385000,126.826000,346.011000,132.604000,331.800000C136.480000,322.266000,137.342000,319.141000,137.373000,314.515000C137.433000,305.444000,133.987000,307.971000,126.888000,322.200000C114.398000,347.239000,111.075000,364.692000,116.627000,376.098000C119.743000,382.501000,118.378000,382.399000,103.200000,375.101000C96.401000,371.832000,95.453000,371.072000,94.828000,368.400000C93.328000,361.981000,92.949000,321.633000,94.293000,311.400000C94.784000,307.660000,95.460000,301.540000,95.795000,297.800000C97.349000,280.451000,99.931000,265.602000,101.730000,263.663000C103.126000,262.160000,109.501000,259.531000,117.400000,257.201000C127.668000,254.172000,129.850000,253.557000,136.400000,251.851000C140.250000,250.847000,144.426000,249.673000,145.681000,249.241000C148.420000,248.299000,158.701000,246.264000,177.200000,243.004000C180.390000,242.442000,185.970000,241.450000,189.600000,240.800000C199.532000,239.020000,206.743000,237.746000,213.400000,236.596000C216.700000,236.025000,221.920000,235.106000,225,234.554000C228.080000,234.001000,234.380000,232.925000,239,232.163000C243.620000,231.401000,249.650000,230.354000,252.400000,229.837000C258.150000,228.754000,260.700000,228.620000,263.680000,229.243000M228.029000,259.801000C222.383000,262.585000,218.508000,264.013000,211.200000,266.001000C195.716000,270.213000,157.365000,283.173000,154.956000,285.008000C150.654000,288.284000,152.219000,295.201000,157.262000,295.200000C159.139000,295.199000,162.718000,293.406000,168.280000,289.680000C176.653000,284.071000,185.725000,280.382000,196.400000,278.246000C221.672000,273.189000,231.402000,274.001000,243.800000,282.202000C250.342000,286.530000,253.038000,287.362000,254.800000,285.600000C256.650000,283.750000,255.388000,280.458000,249.325000,271.318000C239.264000,256.151000,237.434000,255.162000,228.029000,259.801000M49.400000,296.751000C57.179000,300.319000,60.678000,305.213000,61.599000,313.814000C61.834000,316.006000,62.288000,320.230000,62.608000,323.200000C64,336.139000,64.644000,357.103000,63.678000,358.075000C62.863000,358.895000,61.970000,357.382000,60.008000,351.858000C56.646000,342.391000,54.208000,336.857000,48.003000,324.600000C38.448000,305.727000,37.983000,303.178000,43.160000,298.002000C45.434000,295.728000,46.641000,295.486000,49.400000,296.751000M174.123000,434.792000C176.146000,435.007000,179.690000,435.371000,182,435.601000C198.301000,437.218000,223.013000,446.412000,231.160000,453.889000C234.484000,456.940000,232.477000,457.049000,221.477000,454.416000C199.669000,449.197000,175.465000,445.971000,152.926000,445.279000C142.512000,444.959000,142.693000,445.011000,140.100000,441.632000C136.989000,437.578000,139.295000,436.573000,155.600000,434.874000C160.416000,434.372000,169.795000,434.331000,174.123000,434.792000" fill="rgb(255,42,109)" stroke="none" stroke-width="1"/></g><script><![CDATA[!function(t,n){"object"==typeof exports&&"undefined"!=typeof module?module.exports=n():"function"==typeof define&&define.amd?define(n):(t=t||self).__SVGATOR_PLAYER__=n()}(this,(function(){"use strict";function t(n){return(t="function"==typeof Symbol&&"symbol"==typeof Symbol.iterator?function(t){return typeof t}:function(t){return t&&"function"==typeof Symbol&&t.constructor===Symbol&&t!==Symbol.prototype?"symbol":typeof t})(n)}function n(t,n){if(!(t instanceof n))throw new TypeError("Cannot call a class as a function")}function r(t,n){for(var r=0;r<n.length;r++){var e=n[r];e.enumerable=e.enumerable||!1,e.configurable=!0,"value"in e&&(e.writable=!0),Object.defineProperty(t,e.key,e)}}function e(t,n,e){return n&&r(t.prototype,n),e&&r(t,e),t}function i(t){return(i=Object.setPrototypeOf?Object.getPrototypeOf:function(t){return t.__proto__||Object.getPrototypeOf(t)})(t)}function u(t,n){return(u=Object.setPrototypeOf||function(t,n){return t.__proto__=n,t})(t,n)}function o(t,n){return!n||"object"!=typeof n&&"function"!=typeof n?function(t){if(void 0===t)throw new ReferenceError("this hasn't been initialised - super() hasn't been called");return t}(t):n}function a(t){var n=function(){if("undefined"==typeof Reflect||!Reflect.construct)return!1;if(Reflect.construct.sham)return!1;if("function"==typeof Proxy)return!0;try{return Date.prototype.toString.call(Reflect.construct(Date,[],(function(){}))),!0}catch(t){return!1}}();return function(){var r,e=i(t);if(n){var u=i(this).constructor;r=Reflect.construct(e,arguments,u)}else r=e.apply(this,arguments);return o(this,r)}}function l(t,n,r){return(l="undefined"!=typeof Reflect&&Reflect.get?Reflect.get:function(t,n,r){var e=function(t,n){for(;!Object.prototype.hasOwnProperty.call(t,n)&&null!==(t=i(t)););return t}(t,n);if(e){var u=Object.getOwnPropertyDescriptor(e,n);return u.get?u.get.call(r):u.value}})(t,n,r||t)}var f=Math.abs;function s(t){return t}function c(t,n,r){var e=1-r;return 3*r*e*(t*e+n*r)+r*r*r}function h(){var t=arguments.length>0&&void 0!==arguments[0]?arguments[0]:0,n=arguments.length>1&&void 0!==arguments[1]?arguments[1]:0,r=arguments.length>2&&void 0!==arguments[2]?arguments[2]:1,e=arguments.length>3&&void 0!==arguments[3]?arguments[3]:1;return t<0||t>1||r<0||r>1?null:f(t-n)<=1e-5&&f(r-e)<=1e-5?s:function(i){if(i<=0)return t>0?i*n/t:0===n&&r>0?i*e/r:0;if(i>=1)return r<1?1+(i-1)*(e-1)/(r-1):1===r&&t<1?1+(i-1)*(n-1)/(t-1):1;for(var u,o=0,a=1;o<a;){var l=c(t,r,u=(o+a)/2);if(f(i-l)<1e-5)break;l<i?o=u:a=u}return c(n,e,u)}}function v(){return 1}function y(t){return 1===t?1:0}function d(){var t=arguments.length>0&&void 0!==arguments[0]?arguments[0]:1,n=arguments.length>1&&void 0!==arguments[1]?arguments[1]:0;if(1===t){if(0===n)return y;if(1===n)return v}var r=1/t;return function(t){return t>=1?1:(t+=n*r)-t%r}}function g(t){var n=arguments.length>1&&void 0!==arguments[1]?arguments[1]:2;if(Number.isInteger(t))return t;var r=Math.pow(10,n);return Math.round(t*r)/r}var p=Math.PI/180;function m(t,n,r){return t>=.5?r:n}function b(t,n,r){return 0===t||n===r?n:t*(r-n)+n}function w(t,n,r){var e=b(t,n,r);return e<=0?0:e}function A(t,n,r){return 0===t?n:1===t?r:{x:b(t,n.x,r.x),y:b(t,n.y,r.y)}}function x(t,n,r){return 0===t?n:1===t?r:{x:w(t,n.x,r.x),y:w(t,n.y,r.y)}}function k(t,n,r){var e=function(t,n,r){return Math.round(b(t,n,r))}(t,n,r);return e<=0?0:e>=255?255:e}function _(t,n,r){return 0===t?n:1===t?r:{r:k(t,n.r,r.r),g:k(t,n.g,r.g),b:k(t,n.b,r.b),a:b(t,null==n.a?1:n.a,null==r.a?1:r.a)}}function S(t,n,r){if(0===t)return n;if(1===t)return r;var e=n.length;if(e!==r.length)return m(t,n,r);for(var i=[],u=0;u<e;u++)i.push(_(t,n[u],r[u]));return i}function O(t,n,r){var e=n.length;if(e!==r.length)return m(t,n,r);for(var i=new Array(e),u=0;u<e;u++)i[u]=b(t,n[u],r[u]);return i}function M(t,n){for(var r=[],e=0;e<t;e++)r.push(n);return r}function B(t,n){if(--n<=0)return t;var r=(t=Object.assign([],t)).length;do{for(var e=0;e<r;e++)t.push(t[e])}while(--n>0);return t}var I,j=function(){function t(r){n(this,t),this.list=r,this.length=r.length}return e(t,[{key:"setAttribute",value:function(t,n){for(var r=this.list,e=0;e<this.length;e++)r[e].setAttribute(t,n)}},{key:"removeAttribute",value:function(t){for(var n=this.list,r=0;r<this.length;r++)n[r].removeAttribute(t)}},{key:"style",value:function(t,n){for(var r=this.list,e=0;e<this.length;e++)r[e].style[t]=n}}]),t}(),E=/-./g,F=function(t,n){return n.toUpperCase()};function P(t){return"function"==typeof t?t:m}function R(t){return t?"function"==typeof t?t:Array.isArray(t)?function(t){var n=arguments.length>1&&void 0!==arguments[1]?arguments[1]:s;if(!Array.isArray(t))return n;switch(t.length){case 1:return d(t[0])||n;case 2:return d(t[0],t[1])||n;case 4:return h(t[0],t[1],t[2],t[3])||n}return n}(t,null):function(t,n){var r=arguments.length>2&&void 0!==arguments[2]?arguments[2]:s;switch(t){case"linear":return s;case"steps":return d(n.steps||1,n.jump||0)||r;case"bezier":case"cubic-bezier":return h(n.x1||0,n.y1||0,n.x2||0,n.y2||0)||r}return r}(t.type,t.value,null):null}function q(t,n,r){var e=arguments.length>3&&void 0!==arguments[3]&&arguments[3],i=n.length-1;if(t<=n[0].t)return e?[0,0,n[0].v]:n[0].v;if(t>=n[i].t)return e?[i,1,n[i].v]:n[i].v;var u,o=n[0],a=null;for(u=1;u<=i;u++){if(!(t>n[u].t)){a=n[u];break}o=n[u]}return null==a?e?[i,1,n[i].v]:n[i].v:o.t===a.t?e?[u,1,a.v]:a.v:(t=(t-o.t)/(a.t-o.t),o.e&&(t=o.e(t)),e?[u,t,r(t,o.v,a.v)]:r(t,o.v,a.v))}function T(t,n){var r=arguments.length>2&&void 0!==arguments[2]?arguments[2]:null;return t&&t.length?"function"!=typeof n?null:("function"!=typeof r&&(r=null),function(e){var i=q(e,t,n);return null!=i&&r&&(i=r(i)),i}):null}function D(t,n){return t.t-n.t}function z(n,r,e,i,u){var o,a="@"===e[0],l="#"===e[0],f=I[e],s=m;switch(a?(o=e.substr(1),e=o.replace(E,F)):l&&(e=e.substr(1)),t(f)){case"function":if(s=f(i,u,q,R,e,a,r,n),l)return s;break;case"string":s=T(i,P(f));break;case"object":if((s=T(i,P(f.i),f.f))&&"function"==typeof f.u)return f.u(r,s,e,a,n)}return s?function(t,n,r){var e=arguments.length>3&&void 0!==arguments[3]&&arguments[3];if(e)return t instanceof j?function(e){return t.style(n,r(e))}:function(e){return t.style[n]=r(e)};if(Array.isArray(n)){var i=n.length;return function(e){var u=r(e);if(null==u)for(var o=0;o<i;o++)t[o].removeAttribute(n);else for(var a=0;a<i;a++)t[a].setAttribute(n,u)}}return function(e){var i=r(e);null==i?t.removeAttribute(n):t.setAttribute(n,i)}}(r,e,s,a):null}function C(n,r,e,i){if(!i||"object"!==t(i))return null;var u=null,o=null;return Array.isArray(i)?o=function(t){if(!t||!t.length)return null;for(var n=0;n<t.length;n++)t[n].e&&(t[n].e=R(t[n].e));return t.sort(D)}(i):(o=i.keys,u=i.data||null),o?z(n,r,e,o,u):null}function V(t,n,r){if(!r)return null;var e=[];for(var i in r)if(r.hasOwnProperty(i)){var u=C(t,n,i,r[i]);u&&e.push(u)}return e.length?e:null}function N(t,n){if(!n.duration||n.duration<0)return null;var r=function(t,n){if(!n)return null;var r=[];if(Array.isArray(n))for(var e=n.length,i=0;i<e;i++){var u=n[i];if(2===u.length){var o=null;if("string"==typeof u[0])o=t.getElementById(u[0]);else if(Array.isArray(u[0])){o=[];for(var a=0;a<u[0].length;a++)if("string"==typeof u[0][a]){var l=t.getElementById(u[0][a]);l&&o.push(l)}o=o.length?1===o.length?o[0]:new j(o):null}if(o){var f=V(t,o,u[1]);f&&(r=r.concat(f))}}}else for(var s in n)if(n.hasOwnProperty(s)){var c=t.getElementById(s);if(c){var h=V(t,c,n[s]);h&&(r=r.concat(h))}}return r.length?r:null}(t,n.elements);return r?function(t,n){var r=arguments.length>2&&void 0!==arguments[2]?arguments[2]:1/0,e=arguments.length>3&&void 0!==arguments[3]?arguments[3]:1,i=arguments.length>4&&void 0!==arguments[4]&&arguments[4],u=arguments.length>5&&void 0!==arguments[5]?arguments[5]:1,o=t.length,a=e>0?n:0;i&&r%2==0&&(a=n-a);var l=null;return function(f,s){var c=f%n,h=1+(f-c)/n;s*=e,i&&h%2==0&&(s=-s);var v=!1;if(h>r)c=a,v=!0,-1===u&&(c=e>0?0:n);else if(s<0&&(c=n-c),c===l)return!1;l=c;for(var y=0;y<o;y++)t[y](c);return v}}(r,n.duration,n.iterations||1/0,n.direction||1,!!n.alternate,n.fill||1):null}function G(t,n){if(I=n,!t||!t.root||!Array.isArray(t.animations))return null;var r=window.document.getElementById(t.root);if(!r)return null;var e=t.animations.map((function(t){return N(r,t)})).filter((function(t){return!!t}));return e.length?{element:r,animations:e,animationSettings:t.animationSettings,options:t.options||void 0}:null}var L=function(){function t(r,e){var i=arguments.length>2&&void 0!==arguments[2]?arguments[2]:{};n(this,t),this._id=0,this._running=!1,this._rollingBack=!1,this._animations=r,this.duration=e.duration,this.alternate=e.alternate,this.fill=e.fill,this.iterations=e.iterations,this.direction=i.direction||1,this.speed=i.speed||1,this.fps=i.fps||100,this.offset=i.offset||0,this.rollbackStartOffset=0}return e(t,[{key:"_rollback",value:function(){var t=this,n=1/0,r=null;this.rollbackStartOffset=this.offset,this._rollingBack||(this._rollingBack=!0,this._running=!0);this._id=window.requestAnimationFrame((function e(i){if(t._rollingBack){null==r&&(r=i);var u=i-r,o=t.rollbackStartOffset-u,a=Math.round(o*t.speed);if(a>t.duration&&n!=1/0){var l=!!t.alternate&&a/t.duration%2>1,f=a%t.duration;a=(f+=l?t.duration:0)||t.duration}var s=t.fps?1e3/t.fps:0,c=Math.max(0,a);if(c<n-s){t.offset=c,n=c;for(var h=t._animations,v=h.length,y=0;y<v;y++)h[y](c,t.direction)}var d=!1;if(t.iterations>0&&-1===t.fill){var g=t.iterations*t.duration,p=g==a;a=p?0:a,t.offset=p?0:t.offset,d=a>g}a>0&&t.offset>=a&&!d?t._id=window.requestAnimationFrame(e):t.stop()}}))}},{key:"_start",value:function(){var t=this,n=arguments.length>0&&void 0!==arguments[0]?arguments[0]:0,r=-1/0,e=null,i={},u=function u(o){t._running=!0,null==e&&(e=o);var a=Math.round((o-e+n)*t.speed),l=t.fps?1e3/t.fps:0;if(a>r+l&&!t._rollingBack){t.offset=a,r=a;for(var f=t._animations,s=f.length,c=0,h=0;h<s;h++)i[h]?c++:(i[h]=f[h](a,t.direction),i[h]&&c++);if(c===s)return void t._stop()}t._id=window.requestAnimationFrame(u)};this._id=window.requestAnimationFrame(u)}},{key:"_stop",value:function(){this._id&&window.cancelAnimationFrame(this._id),this._running=!1,this._rollingBack=!1}},{key:"play",value:function(){!this._rollingBack&&this._running||(this._rollingBack=!1,this.rollbackStartOffset>this.duration&&(this.offset=this.rollbackStartOffset-(this.rollbackStartOffset-this.offset)%this.duration,this.rollbackStartOffset=0),this._start(this.offset))}},{key:"stop",value:function(){this._stop(),this.offset=0,this.rollbackStartOffset=0;var t=this.direction,n=this._animations;window.requestAnimationFrame((function(){for(var r=0;r<n.length;r++)n[r](0,t)}))}},{key:"reachedToEnd",value:function(){return this.iterations>0&&this.offset>=this.iterations*this.duration}},{key:"restart",value:function(){this._stop(),this.offset=0,this._start()}},{key:"pause",value:function(){this._stop()}},{key:"reverse",value:function(){this.direction=-this.direction}}],[{key:"build",value:function(n,r){return(n=G(n,r))?{el:n.element,options:n.options||{},player:new t(n.animations,n.animationSettings,n.options)}:null}}]),t}();!function(){for(var t=0,n=["ms","moz","webkit","o"],r=0;r<n.length&&!window.requestAnimationFrame;++r)window.requestAnimationFrame=window[n[r]+"RequestAnimationFrame"],window.cancelAnimationFrame=window[n[r]+"CancelAnimationFrame"]||window[n[r]+"CancelRequestAnimationFrame"];window.requestAnimationFrame||(window.requestAnimationFrame=function(n){var r=Date.now(),e=Math.max(0,16-(r-t)),i=window.setTimeout((function(){n(r+e)}),e);return t=r+e,i},window.cancelAnimationFrame=window.clearTimeout)}();var $=/\.0+$/g;function H(t){return Number.isInteger(t)?t+"":t.toFixed(6).replace($,"")}function Q(t){var n=arguments.length>1&&void 0!==arguments[1]?arguments[1]:" ";return t&&t.length?t.map(H).join(n):""}function U(t){return H(t.x)+","+H(t.y)}function Y(t){return t?null==t.a||t.a>=1?"rgb("+t.r+","+t.g+","+t.b+")":"rgba("+t.r+","+t.g+","+t.b+","+t.a+")":"transparent"}var Z={f:null,i:x,u:function(t,n){return function(r){var e=n(r);t.setAttribute("rx",H(e.x)),t.setAttribute("ry",H(e.y))}}},J={f:null,i:function(t,n,r){return 0===t?n:1===t?r:{width:w(t,n.width,r.width),height:w(t,n.height,r.height)}},u:function(t,n){return function(r){var e=n(r);t.setAttribute("width",H(e.width)),t.setAttribute("height",H(e.height))}}},K=Math.sin,W=Math.cos,X=Math.acos,tt=Math.asin,nt=Math.tan,rt=Math.atan2,et=Math.PI/180,it=180/Math.PI,ut=Math.sqrt,ot=function(){function t(){var r=arguments.length>0&&void 0!==arguments[0]?arguments[0]:1,e=arguments.length>1&&void 0!==arguments[1]?arguments[1]:0,i=arguments.length>2&&void 0!==arguments[2]?arguments[2]:0,u=arguments.length>3&&void 0!==arguments[3]?arguments[3]:1,o=arguments.length>4&&void 0!==arguments[4]?arguments[4]:0,a=arguments.length>5&&void 0!==arguments[5]?arguments[5]:0;n(this,t),this.m=[r,e,i,u,o,a],this.i=null,this.w=null,this.s=null}return e(t,[{key:"point",value:function(t,n){var r=this.m;return{x:r[0]*t+r[2]*n+r[4],y:r[1]*t+r[3]*n+r[5]}}},{key:"translateSelf",value:function(){var t=arguments.length>0&&void 0!==arguments[0]?arguments[0]:0,n=arguments.length>1&&void 0!==arguments[1]?arguments[1]:0;if(!t&&!n)return this;var r=this.m;return r[4]+=r[0]*t+r[2]*n,r[5]+=r[1]*t+r[3]*n,this.w=this.s=this.i=null,this}},{key:"rotateSelf",value:function(){var t=arguments.length>0&&void 0!==arguments[0]?arguments[0]:0;if(t%=360){var n=K(t*=et),r=W(t),e=this.m,i=e[0],u=e[1];e[0]=i*r+e[2]*n,e[1]=u*r+e[3]*n,e[2]=e[2]*r-i*n,e[3]=e[3]*r-u*n,this.w=this.s=this.i=null}return this}},{key:"scaleSelf",value:function(){var t=arguments.length>0&&void 0!==arguments[0]?arguments[0]:1,n=arguments.length>1&&void 0!==arguments[1]?arguments[1]:1;if(1!==t||1!==n){var r=this.m;r[0]*=t,r[1]*=t,r[2]*=n,r[3]*=n,this.w=this.s=this.i=null}return this}},{key:"skewSelf",value:function(t,n){if(n%=360,(t%=360)||n){var r=this.m,e=r[0],i=r[1],u=r[2],o=r[3];t&&(t=nt(t*et),r[2]+=e*t,r[3]+=i*t),n&&(n=nt(n*et),r[0]+=u*n,r[1]+=o*n),this.w=this.s=this.i=null}return this}},{key:"resetSelf",value:function(){var t=arguments.length>0&&void 0!==arguments[0]?arguments[0]:1,n=arguments.length>1&&void 0!==arguments[1]?arguments[1]:0,r=arguments.length>2&&void 0!==arguments[2]?arguments[2]:0,e=arguments.length>3&&void 0!==arguments[3]?arguments[3]:1,i=arguments.length>4&&void 0!==arguments[4]?arguments[4]:0,u=arguments.length>5&&void 0!==arguments[5]?arguments[5]:0,o=this.m;return o[0]=t,o[1]=n,o[2]=r,o[3]=e,o[4]=i,o[5]=u,this.w=this.s=this.i=null,this}},{key:"recomposeSelf",value:function(){var t=arguments.length>0&&void 0!==arguments[0]?arguments[0]:null,n=arguments.length>1&&void 0!==arguments[1]?arguments[1]:null,r=arguments.length>2&&void 0!==arguments[2]?arguments[2]:null,e=arguments.length>3&&void 0!==arguments[3]?arguments[3]:null,i=arguments.length>4&&void 0!==arguments[4]?arguments[4]:null;return this.isIdentity||this.resetSelf(),t&&(t.x||t.y)&&this.translateSelf(t.x,t.y),n&&this.rotateSelf(n),r&&(r.x&&this.skewSelf(r.x,0),r.y&&this.skewSelf(0,r.y)),!e||1===e.x&&1===e.y||this.scaleSelf(e.x,e.y),i&&(i.x||i.y)&&this.translateSelf(i.x,i.y),this}},{key:"decompose",value:function(){var t=arguments.length>0&&void 0!==arguments[0]?arguments[0]:0,n=arguments.length>1&&void 0!==arguments[1]?arguments[1]:0,r=this.m,e=r[0]*r[0]+r[1]*r[1],i=[[r[0],r[1]],[r[2],r[3]]],u=ut(e);if(0===u)return{origin:{x:r[4],y:r[5]},translate:{x:t,y:n},scale:{x:0,y:0},skew:{x:0,y:0},rotate:0};i[0][0]/=u,i[0][1]/=u;var o=r[0]*r[3]-r[1]*r[2]<0;o&&(u=-u);var a=i[0][0]*i[1][0]+i[0][1]*i[1][1];i[1][0]-=i[0][0]*a,i[1][1]-=i[0][1]*a;var l=ut(i[1][0]*i[1][0]+i[1][1]*i[1][1]);if(0===l)return{origin:{x:r[4],y:r[5]},translate:{x:t,y:n},scale:{x:u,y:0},skew:{x:0,y:0},rotate:0};i[1][0]/=l,i[1][1]/=l,a/=l;var f=0;return i[1][1]<0?(f=X(i[1][1])*it,i[0][1]<0&&(f=360-f)):f=tt(i[0][1])*it,o&&(f=-f),a=rt(a,ut(i[0][0]*i[0][0]+i[0][1]*i[0][1]))*it,{origin:{x:r[4],y:r[5]},translate:{x:t,y:n},scale:{x:u,y:l},skew:{x:a,y:0},rotate:f}}},{key:"toString",value:function(){return null===this.s&&(this.s="matrix("+this.m.map(lt).join(" ")+")"),this.s}},{key:"determinant",get:function(){var t=this.m;return t[0]*t[3]-t[1]*t[2]}},{key:"isIdentity",get:function(){if(null===this.i){var t=this.m;this.i=1===t[0]&&0===t[1]&&0===t[2]&&1===t[3]&&0===t[4]&&0===t[5]}return this.i}}]),t}(),at=/\.0+$/;function lt(t){return Number.isInteger(t)?t:t.toFixed(14).replace(at,"")}Object.freeze({M:2,L:2,Z:0,H:1,V:1,C:6,Q:4,T:2,S:4,A:7});function ft(t,n,r){return t+(n-t)*r}function st(t,n,r){var e=arguments.length>3&&void 0!==arguments[3]&&arguments[3],i={x:ft(t.x,n.x,r),y:ft(t.y,n.y,r)};return e&&(i.a=ct(t,n)),i}function ct(t,n){return Math.atan2(n.y-t.y,n.x-t.x)}function ht(t,n,r,e){var i=1-e;return i*i*t+2*i*e*n+e*e*r}function vt(t,n,r,e){return 2*(1-e)*(n-t)+2*e*(r-n)}function yt(t,n,r,e){var i=arguments.length>4&&void 0!==arguments[4]&&arguments[4],u={x:ht(t.x,n.x,r.x,e),y:ht(t.y,n.y,r.y,e)};return i&&(u.a=dt(t,n,r,e)),u}function dt(t,n,r,e){return Math.atan2(vt(t.y,n.y,r.y,e),vt(t.x,n.x,r.x,e))}function gt(t,n,r,e,i){var u=i*i;return i*u*(e-t+3*(n-r))+3*u*(t+r-2*n)+3*i*(n-t)+t}function pt(t,n,r,e,i){var u=1-i;return 3*(u*u*(n-t)+2*u*i*(r-n)+i*i*(e-r))}function mt(t,n,r,e,i){var u=arguments.length>5&&void 0!==arguments[5]&&arguments[5],o={x:gt(t.x,n.x,r.x,e.x,i),y:gt(t.y,n.y,r.y,e.y,i)};return u&&(o.a=bt(t,n,r,e,i)),o}function bt(t,n,r,e,i){return Math.atan2(pt(t.y,n.y,r.y,e.y,i),pt(t.x,n.x,r.x,e.x,i))}function wt(t,n,r){var e=arguments.length>3&&void 0!==arguments[3]&&arguments[3];if(xt(n)){if(kt(r))return yt(n,r.start,r,t,e)}else if(xt(r)){if(n.end)return yt(n,n.end,r,t,e)}else{if(n.end)return r.start?mt(n,n.end,r.start,r,t,e):yt(n,n.end,r,t,e);if(r.start)return yt(n,r.start,r,t,e)}return st(n,r,t,e)}function At(t,n,r){var e=wt(t,n,r,!0);return e.a=function(t){var n=arguments.length>1&&void 0!==arguments[1]&&arguments[1];return n?t+Math.PI:t}(e.a)/p,e}function xt(t){return!t.type||"corner"===t.type}function kt(t){return null!=t.start&&!xt(t)}var _t=new ot;var St={f:function(t){return t?t.join(" "):""},i:function(n,r,e){if(0===n)return r;if(1===n)return e;var i=r.length;if(i!==e.length)return m(n,r,e);for(var u,o=new Array(i),a=0;a<i;a++){if((u=t(r[a]))!==t(e[a]))return m(n,r,e);if("number"===u)o[a]=b(n,r[a],e[a]);else{if(r[a]!==e[a])return m(n,r,e);o[a]=r[a]}}return o}},Ot={f:null,i:O,u:function(t,n){return function(r){var e=n(r);t.setAttribute("x1",H(e[0])),t.setAttribute("y1",H(e[1])),t.setAttribute("x2",H(e[2])),t.setAttribute("y2",H(e[3]))}}},Mt={f:H,i:b},Bt={f:H,i:function(t,n,r){var e=b(t,n,r);return e<=0?0:e>=1?1:e}},It={f:function(t){var n=arguments.length>1&&void 0!==arguments[1]?arguments[1]:" ";return t&&t.length>0&&(t=t.map((function(t){return Math.floor(1e4*t)/1e4}))),Q(t,n)},i:function(t,n,r){var e,i,u,o=n.length,a=r.length;if(o!==a)if(0===o)n=M(o=a,0);else if(0===a)a=o,r=M(o,0);else{var l=(u=(e=o)*(i=a)/function(t,n){for(var r;n;)r=n,n=t%n,t=r;return t||1}(e,i))<0?-u:u;n=B(n,Math.floor(l/o)),r=B(r,Math.floor(l/a)),o=a=l}for(var f=[],s=0;s<o;s++)f.push(g(w(t,n[s],r[s]),6));return f}};function jt(t,n,r,e,i,u,o,a){return n=function(t,n,r){for(var e,i,u,o=t.length-1,a={},l=0;l<=o;l++)(e=t[l]).e&&(e.e=n(e.e)),e.v&&"g"===(i=e.v).t&&i.r&&(u=r.getElementById(i.r))&&(a[i.r]=u.querySelectorAll("stop"));return a}(t,e,a),function(e){var i,u=r(e,t,Et);return u?"c"===u.t?Y(u.v):"g"===u.t?(n[u.r]&&function(t,n){for(var r=0,e=t.length;r<e;r++)t[r].setAttribute("stop-color",Y(n[r]))}(n[u.r],u.v),(i=u.r)?"url(#"+i+")":"none"):"none":"none"}}function Et(t,n,r){if(0===t)return n;if(1===t)return r;if(n&&r){var e=n.t;if(e===r.t)switch(n.t){case"c":return{t:e,v:_(t,n.v,r.v)};case"g":if(n.r===r.r)return{t:e,v:S(t,n.v,r.v),r:n.r}}}return m(t,n,r)}var Ft={blur:x,brightness:w,contrast:w,"drop-shadow":function(t,n,r){return 0===t?n:1===t?r:{blur:x(t,n.blur,r.blur),offset:A(t,n.offset,r.offset),color:_(t,n.color,r.color)}},grayscale:w,"hue-rotate":b,invert:w,opacity:w,saturate:w,sepia:w};function Pt(t,n,r){if(0===t)return n;if(1===t)return r;var e=n.length;if(e!==r.length)return m(t,n,r);for(var i,u=[],o=0;o<e;o++){if(n[o].type!==r[o].type)return n;if(!(i=Ft[n[o].type]))return m(t,n,r);u.push({type:n.type,value:i(t,n[o].value,r[o].value)})}return u}var Rt={blur:function(t){return t?function(n){t.setAttribute("stdDeviation",U(n))}:null},brightness:function(t,n,r){return(t=Tt(r,n))?function(n){n=H(n),t.map((function(t){return t.setAttribute("slope",n)}))}:null},contrast:function(t,n,r){return(t=Tt(r,n))?function(n){var r=H((1-n)/2);n=H(n),t.map((function(t){t.setAttribute("slope",n),t.setAttribute("intercept",r)}))}:null},"drop-shadow":function(t,n,r){var e=r.getElementById(n+"-blur");if(!e)return null;var i=r.getElementById(n+"-offset");if(!i)return null;var u=r.getElementById(n+"-flood");return u?function(t){e.setAttribute("stdDeviation",U(t.blur)),i.setAttribute("dx",H(t.offset.x)),i.setAttribute("dy",H(t.offset.y)),u.setAttribute("flood-color",Y(t.color))}:null},grayscale:function(t){return t?function(n){t.setAttribute("values",Q(function(t){return[.2126+.7874*(t=1-t),.7152-.7152*t,.0722-.0722*t,0,0,.2126-.2126*t,.7152+.2848*t,.0722-.0722*t,0,0,.2126-.2126*t,.7152-.7152*t,.0722+.9278*t,0,0,0,0,0,1,0]}(n)))}:null},"hue-rotate":function(t){return t?function(n){return t.setAttribute("values",H(n))}:null},invert:function(t,n,r){return(t=Tt(r,n))?function(n){n=H(n)+" "+H(1-n),t.map((function(t){return t.setAttribute("tableValues",n)}))}:null},opacity:function(t,n,r){return(t=r.getElementById(n+"-A"))?function(n){return t.setAttribute("tableValues","0 "+H(n))}:null},saturate:function(t){return t?function(n){return t.setAttribute("values",H(n))}:null},sepia:function(t){return t?function(n){return t.setAttribute("values",Q(function(t){return[.393+.607*(t=1-t),.769-.769*t,.189-.189*t,0,0,.349-.349*t,.686+.314*t,.168-.168*t,0,0,.272-.272*t,.534-.534*t,.131+.869*t,0,0,0,0,0,1,0]}(n)))}:null}};var qt=["R","G","B"];function Tt(t,n){var r=qt.map((function(r){return t.getElementById(n+"-"+r)||null}));return-1!==r.indexOf(null)?null:r}var Dt={fill:jt,"fill-opacity":Bt,stroke:jt,"stroke-opacity":Bt,"stroke-width":Mt,"stroke-dashoffset":{f:H,i:b},"stroke-dasharray":It,opacity:Bt,transform:function(n,r,e,i){if(!(n=function(n,r){if(!n||"object"!==t(n))return null;var e=!1;for(var i in n)n.hasOwnProperty(i)&&(n[i]&&n[i].length?(n[i].forEach((function(t){t.e&&(t.e=r(t.e))})),e=!0):delete n[i]);return e?n:null}(n,i)))return null;var u=function(t,i,u){var o=arguments.length>3&&void 0!==arguments[3]?arguments[3]:null;return n[t]?e(i,n[t],u):r&&r[t]?r[t]:o};return r&&r.a&&n.o?function(t){var r=e(t,n.o,At);return _t.recomposeSelf(r,u("r",t,b,0)+r.a,u("k",t,A),u("s",t,A),u("t",t,A)).toString()}:function(t){return _t.recomposeSelf(u("o",t,wt,null),u("r",t,b,0),u("k",t,A),u("s",t,A),u("t",t,A)).toString()}},"#filter":function(t,n,r,e,i,u,o,a){if(!n.items||!t||!t.length)return null;var l=function(t,n){var r=(t=t.map((function(t){return t&&Rt[t[0]]?(n.getElementById(t[1]),Rt[t[0]](n.getElementById(t[1]),t[1],n)):null}))).length;return function(n){for(var e=0;e<r;e++)t[e]&&t[e](n[e].value)}}(n.items,a);return l?(t=function(t,n){return t.map((function(t){return t.e=n(t.e),t}))}(t,e),function(n){l(r(n,t,Pt))}):null},"#line":Ot,points:{f:Q,i:O},d:St,r:Mt,"#size":J,"#radius":Z,_:function(t,n){if(Array.isArray(t))for(var r=0;r<t.length;r++)this[t[r]]=n;else this[t]=n}};return function(t){!function(t,n){if("function"!=typeof n&&null!==n)throw new TypeError("Super expression must either be null or a function");t.prototype=Object.create(n&&n.prototype,{constructor:{value:t,writable:!0,configurable:!0}}),n&&u(t,n)}(o,t);var r=a(o);function o(){return n(this,o),r.apply(this,arguments)}return e(o,null,[{key:"build",value:function(t){var n=l(i(o),"build",this).call(this,t,Dt),r=(n.el,n.options,n.player);return function(t,n,r){t.play()}(r),r}}]),o}(L)}));
__SVGATOR_PLAYER__.build({"root":"eqk7cveudc3g1","animations":[{"duration":4000,"direction":1,"iterations":0,"fill":1,"alternate":false,"elements":{"eqk7cveudc3g3":{"transform":{"data":{"o":{"x":180.2253189086914,"y":243.21259117126465,"type":"corner"},"t":{"x":-180.2253189086914,"y":-243.21259117126465}},"keys":{"r":[{"t":0,"v":0},{"t":100,"v":5},{"t":200,"v":10},{"t":300,"v":15},{"t":400,"v":20},{"t":500,"v":25},{"t":600,"v":20},{"t":700,"v":15},{"t":800,"v":10},{"t":900,"v":5},{"t":1000,"v":0},{"t":1100,"v":-5},{"t":1200,"v":-10},{"t":1300,"v":-15},{"t":1400,"v":-20},{"t":1500,"v":-25},{"t":1600,"v":-30},{"t":1700,"v":-35},{"t":1800,"v":-40},{"t":1900,"v":-45},{"t":2000,"v":-50},{"t":2100,"v":-45},{"t":2200,"v":-40},{"t":2300,"v":-35},{"t":2400,"v":-30},{"t":2500,"v":-25},{"t":2600,"v":-20},{"t":2700,"v":-15},{"t":2800,"v":-10},{"t":2900,"v":-5},{"t":3000,"v":0}]}}},"eqk7cveudc3g4":{"transform":{"data":{"o":{"x":199.91066759824753,"y":248.6478556394577,"type":"corner"},"t":{"x":-199.91066759824753,"y":-248.6478556394577}},"keys":{"r":[{"t":0,"v":0},{"t":100,"v":5},{"t":200,"v":10},{"t":300,"v":15},{"t":400,"v":20},{"t":500,"v":25},{"t":600,"v":20},{"t":700,"v":15},{"t":800,"v":10},{"t":900,"v":5},{"t":1000,"v":0},{"t":1100,"v":-5},{"t":1200,"v":-10},{"t":1300,"v":-15},{"t":1400,"v":-20},{"t":1500,"v":-25},{"t":1600,"v":-30},{"t":1700,"v":-35},{"t":1800,"v":-40},{"t":1900,"v":-45},{"t":2000,"v":-50},{"t":2100,"v":-45},{"t":2200,"v":-40},{"t":2300,"v":-35},{"t":2400,"v":-30},{"t":2500,"v":-25},{"t":2600,"v":-20},{"t":2700,"v":-15},{"t":2800,"v":-10},{"t":2900,"v":-5},{"t":3000,"v":0}]}}}}}],"options":{"start":"load","hover":"freeze","click":"freeze","scroll":25,"exportedIds":"unique","title":"sus"},"animationSettings":{"duration":4000,"direction":1,"iterations":0,"fill":1,"alternate":false}})]]></script></svg>